<!DOCTYPE svg PUBLIC "-//W3C//DTD SVG 1.1//EN" "http://www.w3.org/Graphics/SVG/1.1/DTD/svg11.dtd">
<svg xmlns="http://www.w3.org/2000/svg" xmlns:xlink="http://www.w3.org/1999/xlink" version="1.1" width="669px" height="421px"><defs/>


<ellipse cx="23" cy="218" rx="7.5" ry="7.5" fill="#ffffff" stroke="#000000">
	<title>operator</title>
</ellipse>
<path d="M 23 225 L 23 250 M 23 230 L 8 230 M 23 230 L 38 230 M 23 250 L 8 270 M 23 250 L 38 270" fill="none" stroke="#000000" stroke-miterlimit="10" pointer-events="none"/>
<g transform="translate(-0.5,277.5)">
		<switch>
		    <text x="24" y="12" fill="#000000" text-anchor="middle" font-size="12px" font-family="Helvetica">
		    	Operator
		    </text>
		</switch>
	</g>
	<rect x="173" y="135" width="120" height="60" fill="#ffffff" stroke="#000000">
		<title>control server</title>
	</rect>
	<g transform="translate(196.5,158.5)">
		<switch>
			<text x="37" y="12" fill="#000000" text-anchor="middle" font-size="12px" font-family="Helvetica">control server</text>
		</switch>
	</g>
	<rect x="308" y="210" width="120" height="60" fill="#ffffff" stroke="#000000" title="robot controller">
		<title>robot controller</title>
		</rect>
	<g transform="translate(327.5,233.5)">
			<switch>
				<text x="40" y="12" fill="#000000" text-anchor="middle" font-size="12px" font-family="Helvetica">robot controller</text>
			</switch>
		</g>

		<rect x="108" y="360" width="120" height="60" fill="#ffffff" stroke="#000000">
			<title>RFID reader</title>
</rect>
			<g transform="translate(134.5,383.5)">
				<switch>
					<text x="33" y="12" fill="#000000" text-anchor="middle" font-size="12px" font-family="Helvetica">RFID reader</text>
				</switch>
			</g>

			<rect x="38" y="0" width="120" height="60" fill="#ffffff" stroke="#000000">
				<title>Kinect camera</title>
			</rect>
			<g transform="translate(60.5,23.5)">
				<switch>
					<text x="37" y="12" fill="#000000" text-anchor="middle" font-size="12px" font-family="Helvetica">kinect camera</text>
				</switch>
			</g>

			<rect x="548" y="135" width="120" height="60" fill="#ffffff" stroke="#000000">
				<title>motor controller</title>
			</rect>
			<g transform="translate(565.5,158.5)">
				<switch>
					<text x="42" y="12" fill="#000000" text-anchor="middle" font-size="12px" font-family="Helvetica">motor controller</text>
				</switch>
			</g>

			<rect x="528" y="260" width="120" height="60" fill="#ffffff" stroke="#000000">
				<title>ultra sonic</title>
			</rect>
			<g transform="translate(560.5,283.5)">
				<switch>
					<text x="28" y="12" fill="#000000" text-anchor="middle" font-size="12px" font-family="Helvetica">ultra sonic</text>
				</switch>
			</g>

			<path d="M 38 260 L 167.79 168.66" fill="none" stroke="#000000" stroke-miterlimit="10" title="operator has a relation with control server"/>
			<path d="M 172.09 165.64 L 168.38 172.53 L 167.79 168.66 L 164.35 166.81 Z" fill="#000000" stroke="#000000" stroke-miterlimit="10" title="1"/>

			<path d="M 98 60 L 159.32 95.04 Q 168 100 176.8 104.74 L 227.39 131.98" fill="none" stroke="#000000" stroke-miterlimit="10" title="kinect camera provide information to server control"/>
			<path d="M 232.02 134.47 L 224.19 134.23 L 227.39 131.98 L 227.51 128.07 Z" fill="#000000" stroke="#000000" stroke-miterlimit="10" pointer-events="none"/>

			<path d="M 168 360 L 230.67 200.92" fill="none" stroke="#000000" stroke-miterlimit="10" title="RFID reader provide information"/>
			<path d="M 232.59 196.04 L 233.28 203.84 L 230.67 200.92 L 226.77 201.27 Z" fill="#000000" stroke="#000000" stroke-miterlimit="10" pointer-events="none"/>

			<path d="M 548 165 L 433.4 236.62" fill="none" stroke="#000000" stroke-miterlimit="10" title="relationshep between the motor and the controller"/>
			<path d="M 428.95 239.41 L 433.03 232.73 L 433.4 236.62 L 436.74 238.67 Z" fill="#000000" stroke="#000000" stroke-miterlimit="10" pointer-events="none"/>

			<path d="M 528 290 L 437.81 249.6" fill="none" stroke="#000000" stroke-miterlimit="10" title="ultra sonic provide information to the controller"/>
			<path d="M 433.02 247.46 L 440.84 247.12 L 437.81 249.6 L 437.98 253.51 Z" fill="#000000" stroke="#000000" stroke-miterlimit="10" pointer-events="none"/>
		</svg>