<!DOCTYPE svg PUBLIC "-//W3C//DTD SVG 1.1//EN" "http://www.w3.org/Graphics/SVG/1.1/DTD/svg11.dtd">
<svg xmlns="http://www.w3.org/2000/svg" xmlns:xlink="http://www.w3.org/1999/xlink" version="1.1" width="351px" height="231px">
	<defs/>


	<path d="M 40 77 L 125 77 L 125 35 L 203.63 35" fill="none" stroke="#000000" stroke-miterlimit="10">
		<title> the operator get robot location</title> 
	</path>
	<path d="M 208.88 35 L 201.88 38.5 L 203.63 35 L 201.88 31.5 Z" fill="#000000" stroke="#000000" stroke-miterlimit="10" pointer-events="none"/>

	<path d="M 20 90 L 125 90 L 125 195 L 203.63 195" fill="none" stroke="#000000" stroke-miterlimit="10">
		<title> the operator send movment commands</title>
	</path>
	<path d="M 208.88 195 L 201.88 198.5 L 203.63 195 L 201.88 191.5 Z" fill="#000000" stroke="#000000" stroke-miterlimit="10" pointer-events="none"/>

	<ellipse cx="20" cy="60" rx="10" ry="10" fill="#ffffff" stroke="#000000">
		<title>operator</title>
	</ellipse>

	<path d="M 20 70 L 20 103.33 M 20 76.67 L 0 76.67 M 20 76.67 L 40 76.67 M 20 103.33 L 0 130 M 20 103.33 L 40 130" fill="none" stroke="#000000" stroke-miterlimit="10" pointer-events="none"/>

	<g transform="translate(5.5,137.5)">
		<switch>
			<text x="14" y="12" fill="#000000" text-anchor="middle" font-size="12px" font-family="Helvetica">operator</text>
		</switch>
	</g>

	<ellipse cx="280" cy="35" rx="70" ry="35" fill="#fffff5" stroke="#000000" pointer-events="none"/>
	<g transform="translate(233.5,28.5)">
		<switch>
			<text x="46" y="12" fill="#000000" text-anchor="middle" font-size="12px" font-family="Helvetica">get robot location</text>
		</switch>
	</g>

	<ellipse cx="287" cy="195" rx="79" ry="35" fill="#fffff1" stroke="#000000" >
		<title>send movement commands</title>
	</ellipse>
	<g transform="translate(211.5,181.5)"><switch>
		<text x="68" y="20" fill="#000000" text-anchor="middle" font-size="12px" font-family="Helvetica">send movement commands</text>
	</switch>
</g>
</svg>